<svg xmlns="http://www.w3.org/2000/svg" xmlns:xlink="http://www.w3.org/1999/xlink" width="512" zoomAndPan="magnify" viewBox="0 0 384 383.999986" height="512" preserveAspectRatio="xMidYMid meet" version="1.0"><defs><clipPath id="8c18b3baa5"><path d="M 170 6.359375 L 377 6.359375 L 377 377.609375 L 170 377.609375 Z M 170 6.359375 " clip-rule="nonzero"/></clipPath><clipPath id="0feff0f4b3"><path d="M 1 28 L 159 28 L 159 311 L 1 311 Z M 1 28 " clip-rule="nonzero"/></clipPath><clipPath id="9c0e576c50"><path d="M 38.449219 28.949219 C 34.890625 46.804688 43.816406 65.210938 56.671875 78.0625 C 69.523438 90.917969 85.96875 99.472656 101.671875 108.65625 C 117.375 117.84375 133.042969 128.289062 142.933594 143.585938 C 151.527344 156.882812 155.007812 172.808594 156.824219 188.550781 C 159.007812 207.585938 158.710938 227.625 152.636719 245.589844 C 148.230469 234.773438 142.488281 224.402344 135.933594 214.734375 C 123.082031 195.699219 107.265625 178.882812 91.523438 162.179688 C 73.117188 142.660156 54.746094 123.140625 36.335938 103.621094 C 55.375 139.324219 84.894531 168.066406 109.859375 199.957031 C 134.820312 231.8125 156.082031 269.847656 153.75 310.257812 C 151.894531 289.589844 135.117188 273.183594 116.933594 263.183594 C 98.746094 253.183594 78.339844 247.625 60.375 237.179688 C 26.445312 217.328125 3.632812 179.699219 1.855469 140.472656 C 0.0742188 100.804688 18.1875 63.101562 38.449219 28.949219 Z M 38.449219 28.949219 " clip-rule="nonzero"/></clipPath></defs><g clip-path="url(#8c18b3baa5)"><path fill="#009688" d="M 328.308594 6.359375 C 333.015625 29.914062 321.234375 54.210938 304.273438 71.175781 C 287.308594 88.175781 265.605469 99.433594 244.898438 111.546875 C 224.160156 123.660156 203.453125 137.472656 190.453125 157.660156 C 179.121094 175.214844 174.488281 196.253906 172.121094 216.996094 C 169.15625 242.179688 169.5625 268.589844 177.5625 292.292969 C 183.378906 277.996094 190.972656 264.332031 199.601562 251.550781 C 216.566406 226.402344 237.457031 204.21875 258.234375 182.140625 C 282.53125 156.363281 306.792969 130.621094 331.089844 104.84375 C 305.9375 151.957031 266.976562 189.957031 234.046875 231.996094 C 201.121094 274.070312 173.046875 324.296875 176.121094 377.632812 C 178.5625 350.332031 200.714844 328.667969 224.75 315.480469 C 248.789062 302.296875 275.714844 294.925781 299.382812 281.144531 C 344.164062 255.070312 374.273438 205.367188 376.609375 153.585938 C 378.980469 101.214844 355.089844 51.394531 328.308594 6.359375 Z M 328.308594 6.359375 " fill-opacity="1" fill-rule="nonzero"/></g><g clip-path="url(#0feff0f4b3)"><g clip-path="url(#9c0e576c50)"><path fill="#4cb5ab" d="M 159.007812 28.949219 L 159.007812 310.257812 L 0.0742188 310.257812 L 0.0742188 28.949219 Z M 159.007812 28.949219 " fill-opacity="1" fill-rule="nonzero"/></g></g></svg>