<svg xmlns="http://www.w3.org/2000/svg" xmlns:xlink="http://www.w3.org/1999/xlink" width="200" zoomAndPan="magnify" viewBox="0 0 150 37.5" height="50" preserveAspectRatio="xMidYMid meet" version="1.0"><defs><g/><clipPath id="ca3a16a813"><path d="M 1 4 L 149.011719 4 L 149.011719 36 L 1 36 Z M 1 4 " clip-rule="nonzero"/></clipPath><clipPath id="418b22d0a4"><path d="M 0.222656 1 L 22 1 L 22 25 L 0.222656 25 Z M 0.222656 1 " clip-rule="nonzero"/></clipPath><clipPath id="215fe6b5e2"><path d="M 60 0.261719 L 67 0.261719 L 67 25 L 60 25 Z M 60 0.261719 " clip-rule="nonzero"/></clipPath><clipPath id="860d696fb7"><path d="M 125 0.261719 L 143 0.261719 L 143 25 L 125 25 Z M 125 0.261719 " clip-rule="nonzero"/></clipPath><clipPath id="0aa3818389"><rect x="0" width="149" y="0" height="32"/></clipPath><clipPath id="7fd5164cd4"><path d="M 110 0 L 118.722656 0 L 118.722656 13.324219 L 110 13.324219 Z M 110 0 " clip-rule="nonzero"/></clipPath><clipPath id="f5c7207706"><path d="M 104.660156 0 L 111 0 L 111 12 L 104.660156 12 Z M 104.660156 0 " clip-rule="nonzero"/></clipPath><clipPath id="800a94319d"><path d="M 106.058594 0.820312 C 105.929688 1.464844 106.253906 2.132812 106.71875 2.601562 C 107.1875 3.066406 107.78125 3.375 108.351562 3.710938 C 108.921875 4.042969 109.488281 4.421875 109.847656 4.976562 C 110.160156 5.457031 110.285156 6.035156 110.351562 6.605469 C 110.429688 7.296875 110.417969 8.023438 110.199219 8.671875 C 110.039062 8.28125 109.832031 7.90625 109.59375 7.554688 C 109.128906 6.863281 108.554688 6.253906 107.984375 5.648438 C 107.316406 4.941406 106.648438 4.234375 105.980469 3.527344 C 106.671875 4.820312 107.742188 5.863281 108.648438 7.019531 C 109.554688 8.175781 110.324219 9.554688 110.238281 11.019531 C 110.171875 10.269531 109.5625 9.675781 108.90625 9.3125 C 108.246094 8.949219 107.503906 8.746094 106.855469 8.367188 C 105.625 7.648438 104.796875 6.285156 104.730469 4.863281 C 104.667969 3.425781 105.324219 2.058594 106.058594 0.820312 Z M 106.058594 0.820312 " clip-rule="nonzero"/></clipPath></defs><g clip-path="url(#ca3a16a813)"><g transform="matrix(1, 0, 0, 1, 1, 4)"><g clip-path="url(#0aa3818389)"><g clip-path="url(#418b22d0a4)"><g fill="#00786c" fill-opacity="1"><g transform="translate(0.548498, 24.762735)"><g><path d="M 15.453125 -0.765625 C 14.054688 -2.523438 12.675781 -4.289062 11.3125 -6.0625 C 9.957031 -7.84375 8.585938 -9.601562 7.203125 -11.34375 C 7.097656 -11.46875 6.910156 -11.648438 6.640625 -11.890625 C 6.378906 -12.140625 6.097656 -12.347656 5.796875 -12.515625 C 5.503906 -12.691406 5.25 -12.757812 5.03125 -12.71875 C 4.820312 -12.675781 4.71875 -12.441406 4.71875 -12.015625 C 4.71875 -10.398438 4.75 -8.796875 4.8125 -7.203125 C 4.875 -5.609375 4.863281 -4.003906 4.78125 -2.390625 C 4.757812 -2.109375 4.75 -1.804688 4.75 -1.484375 C 4.75 -1.171875 4.707031 -0.867188 4.625 -0.578125 C 4.5625 -0.316406 4.472656 -0.171875 4.359375 -0.140625 C 4.253906 -0.109375 4.046875 -0.09375 3.734375 -0.09375 C 3.179688 -0.113281 2.625 -0.125 2.0625 -0.125 C 1.5 -0.125 0.9375 -0.125 0.375 -0.125 C 0.25 -0.125 0.160156 -0.351562 0.109375 -0.8125 C 0.0546875 -1.269531 0.03125 -1.84375 0.03125 -2.53125 C 0.03125 -3.21875 0.0351562 -3.914062 0.046875 -4.625 C 0.0546875 -5.34375 0.0703125 -5.972656 0.09375 -6.515625 C 0.113281 -7.054688 0.125 -7.410156 0.125 -7.578125 C 0.125 -9.816406 0.117188 -12.066406 0.109375 -14.328125 C 0.0976562 -16.585938 0.101562 -18.84375 0.125 -21.09375 C 0.125 -21.394531 0.144531 -21.679688 0.1875 -21.953125 C 0.226562 -22.234375 0.410156 -22.445312 0.734375 -22.59375 C 1.054688 -22.71875 1.414062 -22.773438 1.8125 -22.765625 C 2.21875 -22.753906 2.582031 -22.71875 2.90625 -22.65625 C 3.664062 -22.507812 4.34375 -22.203125 4.9375 -21.734375 C 5.53125 -21.265625 6.03125 -20.734375 6.4375 -20.140625 C 7.050781 -19.265625 7.675781 -18.390625 8.3125 -17.515625 C 8.957031 -16.648438 9.609375 -15.785156 10.265625 -14.921875 C 10.859375 -14.171875 11.445312 -13.367188 12.03125 -12.515625 C 12.613281 -11.671875 13.253906 -10.921875 13.953125 -10.265625 C 14.148438 -10.066406 14.375 -9.9375 14.625 -9.875 C 14.945312 -9.789062 15.21875 -9.859375 15.4375 -10.078125 C 15.664062 -10.304688 15.820312 -10.566406 15.90625 -10.859375 C 15.96875 -11.054688 16.003906 -11.265625 16.015625 -11.484375 C 16.023438 -11.710938 16.03125 -11.929688 16.03125 -12.140625 C 15.988281 -13.691406 15.953125 -15.234375 15.921875 -16.765625 C 15.890625 -18.296875 15.945312 -19.832031 16.09375 -21.375 C 16.15625 -21.882812 16.332031 -22.234375 16.625 -22.421875 C 16.925781 -22.617188 17.289062 -22.722656 17.71875 -22.734375 C 18.144531 -22.742188 18.578125 -22.710938 19.015625 -22.640625 C 19.460938 -22.566406 19.859375 -22.519531 20.203125 -22.5 C 20.347656 -22.5 20.476562 -22.46875 20.59375 -22.40625 C 20.757812 -22.300781 20.851562 -22.117188 20.875 -21.859375 C 20.894531 -21.609375 20.890625 -21.34375 20.859375 -21.0625 C 20.828125 -20.789062 20.800781 -20.578125 20.78125 -20.421875 C 20.78125 -20.003906 20.78125 -19.585938 20.78125 -19.171875 C 20.78125 -18.753906 20.78125 -18.34375 20.78125 -17.9375 C 20.757812 -17.113281 20.75 -16.289062 20.75 -15.46875 C 20.75 -14.65625 20.75 -13.832031 20.75 -13 C 20.75 -11.40625 20.75 -9.800781 20.75 -8.1875 C 20.75 -6.570312 20.75 -4.976562 20.75 -3.40625 C 20.75 -2.957031 20.765625 -2.476562 20.796875 -1.96875 C 20.828125 -1.46875 20.8125 -0.992188 20.75 -0.546875 C 20.6875 -0.203125 20.554688 -0.0351562 20.359375 -0.046875 C 20.171875 -0.0546875 19.9375 -0.0625 19.65625 -0.0625 C 19.257812 -0.0625 18.863281 -0.0625 18.46875 -0.0625 C 18.070312 -0.0625 17.671875 -0.0625 17.265625 -0.0625 C 16.847656 -0.0625 16.503906 -0.0976562 16.234375 -0.171875 C 15.972656 -0.242188 15.710938 -0.441406 15.453125 -0.765625 Z M 15.453125 -0.765625 "/></g></g></g></g><g fill="#00786c" fill-opacity="1"><g transform="translate(21.519224, 24.762735)"><g><path d="M 12.015625 -0.21875 C 11.035156 -0.15625 10.054688 -0.101562 9.078125 -0.0625 C 8.097656 -0.0195312 7.113281 0 6.125 0 C 4.457031 0 3.082031 -0.582031 2 -1.75 C 0.914062 -2.914062 0.300781 -4.457031 0.15625 -6.375 C 0.03125 -8.113281 -0.0078125 -9.859375 0.03125 -11.609375 C 0.0703125 -13.367188 0.101562 -15.117188 0.125 -16.859375 C 0.125 -17.128906 0.265625 -17.316406 0.546875 -17.421875 C 0.835938 -17.535156 1.191406 -17.609375 1.609375 -17.640625 C 2.023438 -17.671875 2.421875 -17.671875 2.796875 -17.640625 C 3.179688 -17.609375 3.460938 -17.59375 3.640625 -17.59375 C 4.054688 -17.59375 4.347656 -17.445312 4.515625 -17.15625 C 4.691406 -16.875 4.796875 -16.523438 4.828125 -16.109375 C 4.859375 -15.691406 4.859375 -15.269531 4.828125 -14.84375 C 4.796875 -14.425781 4.78125 -14.097656 4.78125 -13.859375 C 4.757812 -12.671875 4.722656 -11.488281 4.671875 -10.3125 C 4.617188 -9.132812 4.664062 -7.96875 4.8125 -6.8125 C 4.914062 -5.96875 5.226562 -5.265625 5.75 -4.703125 C 6.269531 -4.140625 6.96875 -3.828125 7.84375 -3.765625 C 7.882812 -3.765625 7.925781 -3.765625 7.96875 -3.765625 C 8.007812 -3.765625 8.050781 -3.765625 8.09375 -3.765625 C 9.03125 -3.765625 9.835938 -4.101562 10.515625 -4.78125 C 11.191406 -5.457031 11.539062 -6.285156 11.5625 -7.265625 C 11.601562 -8.648438 11.632812 -10.050781 11.65625 -11.46875 C 11.675781 -12.894531 11.664062 -14.375 11.625 -15.90625 C 11.601562 -16.625 11.691406 -17.085938 11.890625 -17.296875 C 12.097656 -17.492188 12.429688 -17.632812 12.890625 -17.71875 C 13.347656 -17.800781 13.828125 -17.816406 14.328125 -17.765625 C 14.828125 -17.710938 15.253906 -17.582031 15.609375 -17.375 C 15.972656 -17.175781 16.15625 -16.894531 16.15625 -16.53125 C 16.15625 -15.15625 16.132812 -13.78125 16.09375 -12.40625 C 16.050781 -11.039062 16.007812 -9.675781 15.96875 -8.3125 C 15.945312 -7.34375 15.953125 -6.390625 15.984375 -5.453125 C 16.015625 -4.515625 16.101562 -3.566406 16.25 -2.609375 C 16.375 -1.867188 16.3125 -1.328125 16.0625 -0.984375 C 15.820312 -0.648438 15.472656 -0.4375 15.015625 -0.34375 C 14.566406 -0.257812 14.070312 -0.226562 13.53125 -0.25 C 12.988281 -0.269531 12.484375 -0.257812 12.015625 -0.21875 Z M 12.015625 -0.21875 "/></g></g></g><g fill="#00786c" fill-opacity="1"><g transform="translate(37.891013, 24.762735)"><g><path d="M 4.96875 -0.796875 C 3.84375 -1.453125 3.097656 -2.320312 2.734375 -3.40625 C 2.378906 -4.488281 2.210938 -5.640625 2.234375 -6.859375 C 2.253906 -7.578125 2.257812 -8.289062 2.25 -9 C 2.238281 -9.71875 2.234375 -10.425781 2.234375 -11.125 C 2.234375 -11.613281 2.238281 -12.109375 2.25 -12.609375 C 2.257812 -13.109375 2.070312 -13.554688 1.6875 -13.953125 C 1.476562 -14.171875 1.21875 -14.316406 0.90625 -14.390625 C 0.601562 -14.460938 0.382812 -14.648438 0.25 -14.953125 C 0.1875 -15.097656 0.144531 -15.242188 0.125 -15.390625 C 0.101562 -15.535156 0.0820312 -15.675781 0.0625 -15.8125 C 0.0390625 -16.144531 0.0390625 -16.46875 0.0625 -16.78125 C 0.0820312 -17.101562 0.210938 -17.382812 0.453125 -17.625 C 0.660156 -17.8125 0.898438 -17.929688 1.171875 -17.984375 C 1.453125 -18.035156 1.6875 -18.171875 1.875 -18.390625 C 2.21875 -18.796875 2.390625 -19.242188 2.390625 -19.734375 C 2.390625 -20.234375 2.367188 -20.707031 2.328125 -21.15625 C 2.285156 -21.5 2.257812 -21.773438 2.25 -21.984375 C 2.238281 -22.203125 2.398438 -22.40625 2.734375 -22.59375 C 2.972656 -22.738281 3.28125 -22.8125 3.65625 -22.8125 C 4.039062 -22.8125 4.421875 -22.789062 4.796875 -22.75 C 5.171875 -22.707031 5.492188 -22.664062 5.765625 -22.625 C 6.296875 -22.5625 6.582031 -22.359375 6.625 -22.015625 C 6.664062 -21.679688 6.664062 -21.300781 6.625 -20.875 C 6.539062 -19.6875 6.753906 -18.804688 7.265625 -18.234375 C 7.515625 -17.972656 7.789062 -17.816406 8.09375 -17.765625 C 8.394531 -17.710938 8.703125 -17.695312 9.015625 -17.71875 C 9.335938 -17.738281 9.640625 -17.738281 9.921875 -17.71875 C 10.210938 -17.695312 10.460938 -17.582031 10.671875 -17.375 C 10.890625 -17.15625 10.984375 -16.816406 10.953125 -16.359375 C 10.921875 -15.898438 10.890625 -15.523438 10.859375 -15.234375 C 10.816406 -14.847656 10.644531 -14.570312 10.34375 -14.40625 C 10.050781 -14.238281 9.703125 -14.113281 9.296875 -14.03125 C 8.898438 -13.957031 8.515625 -13.863281 8.140625 -13.75 C 7.765625 -13.632812 7.472656 -13.445312 7.265625 -13.1875 C 7.035156 -12.894531 6.84375 -12.40625 6.6875 -11.71875 C 6.539062 -11.039062 6.457031 -10.273438 6.4375 -9.421875 C 6.414062 -8.578125 6.472656 -7.765625 6.609375 -6.984375 C 6.742188 -6.210938 6.984375 -5.570312 7.328125 -5.0625 C 7.671875 -4.550781 8.128906 -4.296875 8.703125 -4.296875 C 8.953125 -4.296875 9.210938 -4.34375 9.484375 -4.4375 C 9.765625 -4.539062 10.035156 -4.628906 10.296875 -4.703125 C 10.566406 -4.773438 10.800781 -4.757812 11 -4.65625 C 11.289062 -4.550781 11.535156 -4.28125 11.734375 -3.84375 C 11.941406 -3.40625 12.109375 -3.066406 12.234375 -2.828125 C 12.359375 -2.597656 12.441406 -2.367188 12.484375 -2.140625 C 12.492188 -1.835938 12.363281 -1.597656 12.09375 -1.421875 C 11.832031 -1.253906 11.59375 -1.109375 11.375 -0.984375 C 10.375 -0.410156 9.3125 -0.0859375 8.1875 -0.015625 C 7.0625 0.0546875 5.988281 -0.203125 4.96875 -0.796875 Z M 4.96875 -0.796875 "/></g></g></g><g fill="#00786c" fill-opacity="1"><g transform="translate(50.461014, 24.762735)"><g><path d="M 9.53125 -13.578125 C 9.425781 -13.515625 9.304688 -13.46875 9.171875 -13.4375 C 9.046875 -13.40625 8.921875 -13.367188 8.796875 -13.328125 C 8.578125 -13.316406 8.34375 -13.304688 8.09375 -13.296875 C 7.84375 -13.285156 7.609375 -13.25 7.390625 -13.1875 C 6.898438 -13.039062 6.476562 -12.773438 6.125 -12.390625 C 5.78125 -12.015625 5.515625 -11.59375 5.328125 -11.125 C 4.984375 -10.1875 4.765625 -9.164062 4.671875 -8.0625 C 4.578125 -6.957031 4.546875 -5.84375 4.578125 -4.71875 C 4.609375 -3.59375 4.613281 -2.53125 4.59375 -1.53125 L 4.59375 -1.078125 C 4.59375 -0.679688 4.441406 -0.40625 4.140625 -0.25 C 3.847656 -0.101562 3.492188 -0.0234375 3.078125 -0.015625 C 2.660156 -0.00390625 2.25 -0.0195312 1.84375 -0.0625 C 1.445312 -0.101562 1.140625 -0.132812 0.921875 -0.15625 C 0.710938 -0.15625 0.554688 -0.195312 0.453125 -0.28125 C 0.273438 -0.394531 0.160156 -0.625 0.109375 -0.96875 C 0.0546875 -1.320312 0.03125 -1.710938 0.03125 -2.140625 C 0.03125 -2.578125 0.046875 -2.988281 0.078125 -3.375 C 0.109375 -3.757812 0.125 -4.046875 0.125 -4.234375 C 0.164062 -4.941406 0.207031 -5.65625 0.25 -6.375 C 0.289062 -7.09375 0.3125 -7.804688 0.3125 -8.515625 C 0.3125 -9.910156 0.3125 -11.304688 0.3125 -12.703125 C 0.3125 -14.109375 0.3125 -15.515625 0.3125 -16.921875 C 0.3125 -17.265625 0.390625 -17.484375 0.546875 -17.578125 C 0.710938 -17.671875 0.914062 -17.707031 1.15625 -17.6875 C 1.40625 -17.664062 1.65625 -17.664062 1.90625 -17.6875 C 2.332031 -17.75 2.75 -17.78125 3.15625 -17.78125 C 4 -17.78125 4.644531 -17.515625 5.09375 -16.984375 C 5.25 -16.796875 5.453125 -16.703125 5.703125 -16.703125 C 5.785156 -16.703125 5.859375 -16.710938 5.921875 -16.734375 C 6.179688 -16.753906 6.492188 -16.847656 6.859375 -17.015625 C 7.234375 -17.179688 7.617188 -17.335938 8.015625 -17.484375 C 8.410156 -17.640625 8.78125 -17.742188 9.125 -17.796875 C 9.476562 -17.847656 9.765625 -17.785156 9.984375 -17.609375 C 10.210938 -17.429688 10.328125 -17.078125 10.328125 -16.546875 C 10.328125 -16.285156 10.320312 -16.015625 10.3125 -15.734375 C 10.300781 -15.460938 10.285156 -15.191406 10.265625 -14.921875 C 10.242188 -14.785156 10.222656 -14.632812 10.203125 -14.46875 C 10.179688 -14.300781 10.125 -14.160156 10.03125 -14.046875 C 9.90625 -13.816406 9.738281 -13.660156 9.53125 -13.578125 Z M 9.53125 -13.578125 "/></g></g></g><g clip-path="url(#215fe6b5e2)"><g fill="#00786c" fill-opacity="1"><g transform="translate(60.854185, 24.762735)"><g><path d="M 1.171875 -19.3125 C 0.710938 -19.601562 0.378906 -20.007812 0.171875 -20.53125 C -0.0234375 -21.050781 -0.03125 -21.613281 0.15625 -22.21875 C 0.5 -23.425781 1.316406 -24.050781 2.609375 -24.09375 L 2.671875 -24.09375 C 3.304688 -24.09375 3.835938 -23.921875 4.265625 -23.578125 C 4.691406 -23.242188 4.976562 -22.78125 5.125 -22.1875 C 5.300781 -21.457031 5.226562 -20.785156 4.90625 -20.171875 C 4.582031 -19.554688 4.03125 -19.15625 3.25 -18.96875 C 2.863281 -18.894531 2.488281 -18.882812 2.125 -18.9375 C 1.769531 -19 1.453125 -19.125 1.171875 -19.3125 Z M 0.734375 -16.25 C 1.023438 -16.4375 1.4375 -16.519531 1.96875 -16.5 C 2.269531 -16.5 2.601562 -16.503906 2.96875 -16.515625 C 3.34375 -16.535156 3.6875 -16.5 4 -16.40625 C 4.3125 -16.320312 4.519531 -16.113281 4.625 -15.78125 C 4.8125 -15.269531 4.875 -14.648438 4.8125 -13.921875 C 4.75 -13.203125 4.71875 -12.578125 4.71875 -12.046875 C 4.738281 -10.796875 4.75 -9.554688 4.75 -8.328125 C 4.75 -7.109375 4.757812 -5.875 4.78125 -4.625 C 4.78125 -4.425781 4.804688 -4.082031 4.859375 -3.59375 C 4.910156 -3.113281 4.941406 -2.597656 4.953125 -2.046875 C 4.960938 -1.492188 4.90625 -1.023438 4.78125 -0.640625 C 4.65625 -0.253906 4.410156 -0.0507812 4.046875 -0.03125 C 3.578125 -0.0078125 3.085938 0.00390625 2.578125 0.015625 C 2.066406 0.0234375 1.578125 0 1.109375 -0.0625 C 0.773438 -0.101562 0.546875 -0.28125 0.421875 -0.59375 C 0.304688 -0.914062 0.242188 -1.300781 0.234375 -1.75 C 0.222656 -2.195312 0.238281 -2.625 0.28125 -3.03125 C 0.320312 -3.4375 0.34375 -3.753906 0.34375 -3.984375 C 0.320312 -4.828125 0.304688 -5.671875 0.296875 -6.515625 C 0.285156 -7.359375 0.28125 -8.203125 0.28125 -9.046875 C 0.257812 -9.753906 0.25 -10.46875 0.25 -11.1875 C 0.25 -11.90625 0.238281 -12.613281 0.21875 -13.3125 C 0.21875 -13.894531 0.207031 -14.460938 0.1875 -15.015625 C 0.164062 -15.566406 0.347656 -15.976562 0.734375 -16.25 Z M 0.734375 -16.25 "/></g></g></g></g><g fill="#00786c" fill-opacity="1"><g transform="translate(66.157864, 24.762735)"><g><path d="M 17.46875 -18.921875 C 17.269531 -18.710938 16.984375 -18.632812 16.609375 -18.6875 C 16.242188 -18.738281 15.921875 -18.765625 15.640625 -18.765625 C 15.046875 -18.765625 14.453125 -18.765625 13.859375 -18.765625 C 13.265625 -18.765625 12.671875 -18.765625 12.078125 -18.765625 C 11.796875 -18.765625 11.597656 -18.664062 11.484375 -18.46875 C 11.367188 -18.269531 11.304688 -18.035156 11.296875 -17.765625 C 11.285156 -17.503906 11.28125 -17.273438 11.28125 -17.078125 C 11.28125 -14.378906 11.28125 -11.6875 11.28125 -9 C 11.28125 -6.3125 11.289062 -3.617188 11.3125 -0.921875 C 11.3125 -0.585938 11.222656 -0.367188 11.046875 -0.265625 C 10.878906 -0.171875 10.640625 -0.132812 10.328125 -0.15625 C 10.003906 -0.175781 9.671875 -0.191406 9.328125 -0.203125 C 8.992188 -0.210938 8.65625 -0.207031 8.3125 -0.1875 C 8.082031 -0.1875 7.8125 -0.140625 7.5 -0.046875 C 7.195312 0.046875 6.945312 0 6.75 -0.1875 C 6.582031 -0.34375 6.5 -0.601562 6.5 -0.96875 C 6.5 -1.34375 6.5 -1.632812 6.5 -1.84375 C 6.5 -3.351562 6.503906 -4.863281 6.515625 -6.375 C 6.523438 -7.882812 6.53125 -9.390625 6.53125 -10.890625 C 6.53125 -11.660156 6.53125 -12.425781 6.53125 -13.1875 C 6.53125 -13.957031 6.519531 -14.722656 6.5 -15.484375 C 6.5 -15.679688 6.519531 -15.953125 6.5625 -16.296875 C 6.601562 -16.648438 6.617188 -17.003906 6.609375 -17.359375 C 6.597656 -17.722656 6.53125 -18.03125 6.40625 -18.28125 C 6.28125 -18.539062 6.054688 -18.671875 5.734375 -18.671875 C 4.910156 -18.671875 4.09375 -18.664062 3.28125 -18.65625 C 2.476562 -18.644531 1.671875 -18.628906 0.859375 -18.609375 C 0.753906 -18.609375 0.640625 -18.613281 0.515625 -18.625 C 0.398438 -18.632812 0.300781 -18.679688 0.21875 -18.765625 C 0.132812 -18.847656 0.0820312 -18.941406 0.0625 -19.046875 C 0.0390625 -19.160156 0.03125 -19.269531 0.03125 -19.375 C 0.0078125 -19.84375 0 -20.304688 0 -20.765625 C 0 -21.222656 0 -21.679688 0 -22.140625 C 0 -22.210938 0.00390625 -22.289062 0.015625 -22.375 C 0.0234375 -22.457031 0.0625 -22.53125 0.125 -22.59375 C 0.207031 -22.675781 0.296875 -22.726562 0.390625 -22.75 C 0.492188 -22.769531 0.597656 -22.78125 0.703125 -22.78125 C 3.378906 -22.71875 6.046875 -22.6875 8.703125 -22.6875 C 11.359375 -22.6875 14.015625 -22.707031 16.671875 -22.75 C 16.816406 -22.75 16.960938 -22.742188 17.109375 -22.734375 C 17.253906 -22.722656 17.375 -22.664062 17.46875 -22.5625 C 17.570312 -22.457031 17.640625 -22.328125 17.671875 -22.171875 C 17.703125 -22.023438 17.726562 -21.878906 17.75 -21.734375 C 17.75 -21.492188 17.753906 -21.25 17.765625 -21 C 17.773438 -20.75 17.78125 -20.503906 17.78125 -20.265625 C 17.800781 -20.054688 17.804688 -19.851562 17.796875 -19.65625 C 17.785156 -19.46875 17.726562 -19.289062 17.625 -19.125 C 17.601562 -19.0625 17.550781 -18.992188 17.46875 -18.921875 Z M 17.46875 -18.921875 "/></g></g></g><g fill="#00786c" fill-opacity="1"><g transform="translate(84.031973, 24.762735)"><g><path d="M 9.53125 -13.578125 C 9.425781 -13.515625 9.304688 -13.46875 9.171875 -13.4375 C 9.046875 -13.40625 8.921875 -13.367188 8.796875 -13.328125 C 8.578125 -13.316406 8.34375 -13.304688 8.09375 -13.296875 C 7.84375 -13.285156 7.609375 -13.25 7.390625 -13.1875 C 6.898438 -13.039062 6.476562 -12.773438 6.125 -12.390625 C 5.78125 -12.015625 5.515625 -11.59375 5.328125 -11.125 C 4.984375 -10.1875 4.765625 -9.164062 4.671875 -8.0625 C 4.578125 -6.957031 4.546875 -5.84375 4.578125 -4.71875 C 4.609375 -3.59375 4.613281 -2.53125 4.59375 -1.53125 L 4.59375 -1.078125 C 4.59375 -0.679688 4.441406 -0.40625 4.140625 -0.25 C 3.847656 -0.101562 3.492188 -0.0234375 3.078125 -0.015625 C 2.660156 -0.00390625 2.25 -0.0195312 1.84375 -0.0625 C 1.445312 -0.101562 1.140625 -0.132812 0.921875 -0.15625 C 0.710938 -0.15625 0.554688 -0.195312 0.453125 -0.28125 C 0.273438 -0.394531 0.160156 -0.625 0.109375 -0.96875 C 0.0546875 -1.320312 0.03125 -1.710938 0.03125 -2.140625 C 0.03125 -2.578125 0.046875 -2.988281 0.078125 -3.375 C 0.109375 -3.757812 0.125 -4.046875 0.125 -4.234375 C 0.164062 -4.941406 0.207031 -5.65625 0.25 -6.375 C 0.289062 -7.09375 0.3125 -7.804688 0.3125 -8.515625 C 0.3125 -9.910156 0.3125 -11.304688 0.3125 -12.703125 C 0.3125 -14.109375 0.3125 -15.515625 0.3125 -16.921875 C 0.3125 -17.265625 0.390625 -17.484375 0.546875 -17.578125 C 0.710938 -17.671875 0.914062 -17.707031 1.15625 -17.6875 C 1.40625 -17.664062 1.65625 -17.664062 1.90625 -17.6875 C 2.332031 -17.75 2.75 -17.78125 3.15625 -17.78125 C 4 -17.78125 4.644531 -17.515625 5.09375 -16.984375 C 5.25 -16.796875 5.453125 -16.703125 5.703125 -16.703125 C 5.785156 -16.703125 5.859375 -16.710938 5.921875 -16.734375 C 6.179688 -16.753906 6.492188 -16.847656 6.859375 -17.015625 C 7.234375 -17.179688 7.617188 -17.335938 8.015625 -17.484375 C 8.410156 -17.640625 8.78125 -17.742188 9.125 -17.796875 C 9.476562 -17.847656 9.765625 -17.785156 9.984375 -17.609375 C 10.210938 -17.429688 10.328125 -17.078125 10.328125 -16.546875 C 10.328125 -16.285156 10.320312 -16.015625 10.3125 -15.734375 C 10.300781 -15.460938 10.285156 -15.191406 10.265625 -14.921875 C 10.242188 -14.785156 10.222656 -14.632812 10.203125 -14.46875 C 10.179688 -14.300781 10.125 -14.160156 10.03125 -14.046875 C 9.90625 -13.816406 9.738281 -13.660156 9.53125 -13.578125 Z M 9.53125 -13.578125 "/></g></g></g><g fill="#00786c" fill-opacity="1"><g transform="translate(94.425144, 24.762735)"><g><path d="M 14.984375 -0.765625 C 14.828125 -0.554688 14.570312 -0.441406 14.21875 -0.421875 C 13.894531 -0.421875 13.578125 -0.488281 13.265625 -0.625 C 12.960938 -0.757812 12.660156 -0.890625 12.359375 -1.015625 C 12.066406 -1.148438 11.75 -1.21875 11.40625 -1.21875 C 11.175781 -1.21875 10.945312 -1.203125 10.71875 -1.171875 C 10.5 -1.148438 10.296875 -1.117188 10.109375 -1.078125 L 9.96875 -1.046875 C 9.375 -0.941406 8.796875 -0.804688 8.234375 -0.640625 C 7.671875 -0.484375 7.144531 -0.320312 6.65625 -0.15625 C 6.425781 -0.09375 6.191406 -0.0390625 5.953125 0 C 5.722656 0.0390625 5.488281 0.0625 5.25 0.0625 C 3.75 0.0625 2.488281 -0.53125 1.46875 -1.71875 C 0.300781 -3.039062 -0.15625 -4.675781 0.09375 -6.625 C 0.195312 -7.394531 0.46875 -8.085938 0.90625 -8.703125 C 1.34375 -9.316406 1.898438 -9.785156 2.578125 -10.109375 C 2.921875 -10.273438 3.285156 -10.394531 3.671875 -10.46875 C 4.066406 -10.539062 4.46875 -10.609375 4.875 -10.671875 C 4.976562 -10.671875 5.066406 -10.675781 5.140625 -10.6875 C 5.222656 -10.695312 5.304688 -10.710938 5.390625 -10.734375 L 9.40625 -11.28125 C 9.9375 -11.363281 10.269531 -11.519531 10.40625 -11.75 C 10.539062 -11.988281 10.617188 -12.179688 10.640625 -12.328125 C 10.679688 -12.671875 10.570312 -12.984375 10.3125 -13.265625 C 10.0625 -13.554688 9.757812 -13.753906 9.40625 -13.859375 C 8.78125 -14.097656 8.128906 -14.21875 7.453125 -14.21875 L 7.359375 -14.21875 C 6.722656 -14.195312 6.117188 -14.101562 5.546875 -13.9375 C 4.972656 -13.78125 4.421875 -13.585938 3.890625 -13.359375 C 3.722656 -13.285156 3.53125 -13.25 3.3125 -13.25 C 2.863281 -13.25 2.414062 -13.394531 1.96875 -13.6875 C 1.53125 -13.976562 1.222656 -14.332031 1.046875 -14.75 C 0.960938 -14.90625 0.925781 -15.039062 0.9375 -15.15625 C 0.945312 -15.269531 0.960938 -15.359375 0.984375 -15.421875 C 1.109375 -15.679688 1.347656 -15.921875 1.703125 -16.140625 C 2.054688 -16.359375 2.429688 -16.539062 2.828125 -16.6875 C 3.234375 -16.84375 3.566406 -16.960938 3.828125 -17.046875 C 5.304688 -17.515625 6.789062 -17.75 8.28125 -17.75 C 8.414062 -17.75 8.554688 -17.75 8.703125 -17.75 C 8.847656 -17.75 8.992188 -17.738281 9.140625 -17.71875 C 9.847656 -17.675781 10.632812 -17.535156 11.5 -17.296875 C 12.375 -17.066406 13.117188 -16.625 13.734375 -15.96875 C 14.453125 -15.195312 14.878906 -14.421875 15.015625 -13.640625 C 15.179688 -12.765625 15.238281 -11.847656 15.1875 -10.890625 C 15.132812 -9.941406 15.117188 -9.019531 15.140625 -8.125 C 15.140625 -7.207031 15.140625 -6.28125 15.140625 -5.34375 C 15.140625 -4.414062 15.148438 -3.503906 15.171875 -2.609375 C 15.171875 -2.296875 15.1875 -1.96875 15.21875 -1.625 C 15.25 -1.28125 15.171875 -0.992188 14.984375 -0.765625 Z M 10.546875 -6.046875 C 10.710938 -6.367188 10.765625 -6.640625 10.703125 -6.859375 C 10.640625 -7.085938 10.578125 -7.242188 10.515625 -7.328125 C 10.429688 -7.453125 10.300781 -7.566406 10.125 -7.671875 C 9.957031 -7.785156 9.71875 -7.851562 9.40625 -7.875 L 9.171875 -7.90625 C 8.984375 -7.925781 8.789062 -7.9375 8.59375 -7.9375 C 8.40625 -7.9375 8.195312 -7.9375 7.96875 -7.9375 C 7.625 -7.9375 7.207031 -7.898438 6.71875 -7.828125 C 6.226562 -7.753906 5.753906 -7.566406 5.296875 -7.265625 C 4.992188 -7.015625 4.800781 -6.757812 4.71875 -6.5 C 4.632812 -6.269531 4.625 -5.984375 4.6875 -5.640625 C 4.832031 -5.003906 5.109375 -4.507812 5.515625 -4.15625 C 5.921875 -3.8125 6.410156 -3.640625 6.984375 -3.640625 C 7.703125 -3.640625 8.40625 -3.875 9.09375 -4.34375 C 9.789062 -4.820312 10.273438 -5.390625 10.546875 -6.046875 Z M 10.546875 -6.046875 "/></g></g></g><g fill="#00786c" fill-opacity="1"><g transform="translate(109.723846, 24.762735)"><g><path d="M 15.421875 -15.8125 C 15.804688 -15.382812 15.925781 -14.925781 15.78125 -14.4375 C 15.726562 -14.21875 15.625 -14.007812 15.46875 -13.8125 C 15.3125 -13.613281 15.148438 -13.425781 14.984375 -13.25 C 14.890625 -13.144531 14.789062 -13.039062 14.6875 -12.9375 C 14.582031 -12.832031 14.476562 -12.726562 14.375 -12.625 C 14.207031 -12.445312 13.988281 -12.382812 13.71875 -12.4375 C 13.445312 -12.5 13.171875 -12.601562 12.890625 -12.75 C 12.617188 -12.894531 12.378906 -13 12.171875 -13.0625 C 11.722656 -13.226562 11.273438 -13.367188 10.828125 -13.484375 C 10.390625 -13.609375 9.9375 -13.703125 9.46875 -13.765625 C 9.363281 -13.785156 9.265625 -13.796875 9.171875 -13.796875 C 9.085938 -13.796875 8.992188 -13.796875 8.890625 -13.796875 C 7.890625 -13.796875 6.992188 -13.492188 6.203125 -12.890625 C 5.421875 -12.285156 4.882812 -11.484375 4.59375 -10.484375 C 4.289062 -9.398438 4.320312 -8.335938 4.6875 -7.296875 C 5.0625 -6.253906 5.695312 -5.414062 6.59375 -4.78125 C 7.289062 -4.3125 8.1875 -4.078125 9.28125 -4.078125 C 10.695312 -4.078125 11.832031 -4.414062 12.6875 -5.09375 C 13.101562 -5.414062 13.445312 -5.625 13.71875 -5.71875 C 13.988281 -5.8125 14.320312 -5.625 14.71875 -5.15625 C 14.914062 -4.945312 15.113281 -4.722656 15.3125 -4.484375 C 15.507812 -4.253906 15.695312 -4.015625 15.875 -3.765625 C 16.125 -3.441406 16.164062 -3.125 16 -2.8125 C 15.832031 -2.507812 15.554688 -2.222656 15.171875 -1.953125 C 14.785156 -1.691406 14.378906 -1.460938 13.953125 -1.265625 C 13.535156 -1.078125 13.21875 -0.929688 13 -0.828125 C 11.75 -0.234375 10.441406 0.0625 9.078125 0.0625 C 7.722656 0.0625 6.429688 -0.226562 5.203125 -0.8125 C 3.984375 -1.394531 2.894531 -2.21875 1.9375 -3.28125 C 1.113281 -4.238281 0.566406 -5.226562 0.296875 -6.25 C 0.0351562 -7.269531 -0.046875 -8.269531 0.046875 -9.25 C 0.140625 -10.238281 0.304688 -11.128906 0.546875 -11.921875 C 1.078125 -13.554688 1.941406 -14.863281 3.140625 -15.84375 C 4.335938 -16.832031 5.828125 -17.4375 7.609375 -17.65625 C 8.191406 -17.71875 8.742188 -17.75 9.265625 -17.75 C 9.546875 -17.75 9.960938 -17.710938 10.515625 -17.640625 C 11.066406 -17.566406 11.660156 -17.453125 12.296875 -17.296875 C 12.929688 -17.148438 13.53125 -16.953125 14.09375 -16.703125 C 14.664062 -16.460938 15.109375 -16.164062 15.421875 -15.8125 Z M 15.421875 -15.8125 "/></g></g></g><g clip-path="url(#860d696fb7)"><g fill="#00786c" fill-opacity="1"><g transform="translate(125.881019, 24.762735)"><g><path d="M 9.046875 -3.03125 C 8.710938 -3.582031 8.347656 -4.097656 7.953125 -4.578125 C 7.554688 -5.054688 7.09375 -5.484375 6.5625 -5.859375 C 6.414062 -5.960938 6.269531 -6.015625 6.125 -6.015625 C 6.101562 -6.015625 6.078125 -6.007812 6.046875 -6 C 6.023438 -5.988281 5.992188 -5.984375 5.953125 -5.984375 C 5.722656 -5.941406 5.554688 -5.816406 5.453125 -5.609375 C 5.191406 -5.160156 4.988281 -4.757812 4.84375 -4.40625 C 4.695312 -4.0625 4.613281 -3.613281 4.59375 -3.0625 C 4.570312 -2.738281 4.570312 -2.414062 4.59375 -2.09375 C 4.613281 -1.78125 4.632812 -1.460938 4.65625 -1.140625 C 4.695312 -0.785156 4.617188 -0.53125 4.421875 -0.375 C 4.359375 -0.3125 4.285156 -0.269531 4.203125 -0.25 C 4.117188 -0.226562 4.023438 -0.207031 3.921875 -0.1875 C 3.660156 -0.125 3.273438 -0.0625 2.765625 0 C 2.253906 0.0625 1.765625 0.0546875 1.296875 -0.015625 C 0.835938 -0.0859375 0.539062 -0.296875 0.40625 -0.640625 C 0.21875 -1.128906 0.101562 -1.664062 0.0625 -2.25 C 0.0195312 -2.832031 0.0078125 -3.425781 0.03125 -4.03125 C 0.0507812 -4.632812 0.0507812 -5.191406 0.03125 -5.703125 C 0.0078125 -6.660156 0 -7.617188 0 -8.578125 C 0 -9.546875 0 -10.507812 0 -11.46875 C 0.0195312 -13.363281 0.0390625 -15.265625 0.0625 -17.171875 C 0.0820312 -19.085938 0.0820312 -21.007812 0.0625 -22.9375 C 0.0625 -23.664062 0.398438 -24.019531 1.078125 -24 C 1.316406 -24 1.625 -24.019531 2 -24.0625 C 2.382812 -24.101562 2.765625 -24.117188 3.140625 -24.109375 C 3.515625 -24.097656 3.835938 -24.023438 4.109375 -23.890625 C 4.390625 -23.765625 4.539062 -23.523438 4.5625 -23.171875 C 4.601562 -22.640625 4.617188 -22.097656 4.609375 -21.546875 C 4.597656 -20.992188 4.59375 -20.453125 4.59375 -19.921875 C 4.59375 -19.003906 4.59375 -18.085938 4.59375 -17.171875 C 4.59375 -16.265625 4.582031 -15.351562 4.5625 -14.4375 C 4.5625 -14.070312 4.613281 -13.769531 4.71875 -13.53125 C 4.820312 -13.300781 5.003906 -13.0625 5.265625 -12.8125 C 5.410156 -12.664062 5.585938 -12.59375 5.796875 -12.59375 C 6.015625 -12.59375 6.207031 -12.675781 6.375 -12.84375 C 7.21875 -13.738281 8.054688 -14.640625 8.890625 -15.546875 C 9.722656 -16.460938 10.625 -17.300781 11.59375 -18.0625 C 12.300781 -18.65625 13.085938 -18.890625 13.953125 -18.765625 C 14.253906 -18.742188 14.59375 -18.664062 14.96875 -18.53125 C 15.351562 -18.394531 15.644531 -18.203125 15.84375 -17.953125 C 16.050781 -17.710938 16.03125 -17.398438 15.78125 -17.015625 C 15.707031 -16.867188 15.609375 -16.734375 15.484375 -16.609375 C 15.359375 -16.492188 15.234375 -16.382812 15.109375 -16.28125 C 14.722656 -15.925781 14.265625 -15.515625 13.734375 -15.046875 C 13.203125 -14.578125 12.6875 -14.066406 12.1875 -13.515625 C 11.6875 -12.960938 11.265625 -12.390625 10.921875 -11.796875 C 10.585938 -11.203125 10.40625 -10.601562 10.375 -10 C 10.34375 -9.40625 10.550781 -8.8125 11 -8.21875 C 11.882812 -7.03125 12.800781 -5.800781 13.75 -4.53125 C 14.695312 -3.269531 15.457031 -1.953125 16.03125 -0.578125 C 15.644531 -0.316406 15.179688 -0.179688 14.640625 -0.171875 C 14.097656 -0.160156 13.546875 -0.195312 12.984375 -0.28125 C 12.421875 -0.375 11.914062 -0.429688 11.46875 -0.453125 C 11.019531 -0.492188 10.660156 -0.664062 10.390625 -0.96875 C 10.128906 -1.28125 9.882812 -1.625 9.65625 -2 C 9.570312 -2.175781 9.472656 -2.351562 9.359375 -2.53125 C 9.253906 -2.707031 9.148438 -2.875 9.046875 -3.03125 Z M 9.046875 -3.03125 "/></g></g></g></g><g fill="#00786c" fill-opacity="1"><g transform="translate(141.97687, 24.762735)"><g><path d="M 0.859375 -4.6875 C 1.203125 -5.039062 1.625 -5.285156 2.125 -5.421875 C 2.625 -5.566406 3.125 -5.554688 3.625 -5.390625 C 4.3125 -5.191406 4.84375 -4.78125 5.21875 -4.15625 C 5.601562 -3.53125 5.710938 -2.859375 5.546875 -2.140625 C 5.460938 -1.691406 5.253906 -1.28125 4.921875 -0.90625 C 4.597656 -0.53125 4.210938 -0.257812 3.765625 -0.09375 C 3.117188 0.132812 2.488281 0.117188 1.875 -0.140625 C 1.257812 -0.410156 0.769531 -0.832031 0.40625 -1.40625 C 0.0507812 -1.976562 -0.0625 -2.601562 0.0625 -3.28125 C 0.1875 -3.851562 0.453125 -4.320312 0.859375 -4.6875 Z M 0.859375 -4.6875 "/></g></g></g></g></g></g><g clip-path="url(#7fd5164cd4)"><path fill="#009688" d="M 116.570312 0 C 116.738281 0.855469 116.3125 1.734375 115.695312 2.351562 C 115.082031 2.964844 114.292969 3.375 113.542969 3.8125 C 112.792969 4.253906 112.042969 4.753906 111.570312 5.484375 C 111.160156 6.121094 110.992188 6.886719 110.90625 7.636719 C 110.796875 8.550781 110.8125 9.507812 111.101562 10.367188 C 111.3125 9.847656 111.589844 9.351562 111.902344 8.890625 C 112.515625 7.976562 113.273438 7.171875 114.027344 6.375 C 114.910156 5.4375 115.789062 4.503906 116.667969 3.570312 C 115.757812 5.277344 114.34375 6.65625 113.152344 8.179688 C 111.957031 9.707031 110.9375 11.527344 111.050781 13.460938 C 111.140625 12.472656 111.941406 11.6875 112.8125 11.207031 C 113.683594 10.730469 114.660156 10.460938 115.519531 9.964844 C 117.144531 9.015625 118.234375 7.214844 118.320312 5.339844 C 118.40625 3.4375 117.539062 1.632812 116.570312 0 Z M 116.570312 0 " fill-opacity="1" fill-rule="nonzero"/></g><g clip-path="url(#f5c7207706)"><g clip-path="url(#800a94319d)"><path fill="#4cb5ab" d="M 110.429688 0.820312 L 110.429688 11.019531 L 104.667969 11.019531 L 104.667969 0.820312 Z M 110.429688 0.820312 " fill-opacity="1" fill-rule="nonzero"/></g></g></svg>